# xmcd
#
# Track frame offsets:
#	150
#	26947
#	40132
#	51992
#	63375
#	79307
#	94567
#	109047
#	123327
#	138145
#
# Disc length: 2124 seconds
#
# Revision: 1
# Processed by: cddbd v1.5.2PL0 Copyright (c) Steve Scherf et al.
# Submitted via: audiograbber 1.83.01
#
DISCID=83084a0a
DTITLE=Etta James - Etta is betta than ewah!
DYEAR=1978
DGENRE=Blues
TTITLE0=Woman (Shake Your Booty)
TTITLE1=Love Vibration
TTITLE2=Only a Fool
TTITLE3=Little Bit of Love
TTITLE4=Groove Me
TTITLE5=Jump into Love
TTITLE6=Leave Your Hat On
TTITLE7=I've Been a Fool
TTITLE8=Blinded by Love
TTITLE9=Ain't No Pity in the Naked City
EXTD=Chess Records, Out of print
EXTT0=
EXTT1=
EXTT2=
EXTT3=
EXTT4=
EXTT5=
EXTT6=
EXTT7=
EXTT8=
EXTT9=
PLAYORDER=
